packet|codec_type=data|stream_index=0|pts=126000|pts_time=1.400000|dts=126000|dts_time=1.400000|duration=N/A|duration_time=N/A|size=26|pos=564|flags=K__|data_hash=CRC32:469f474b|side_datum/mpegts_stream_id:side_data_type=MPEGTS Stream ID|side_datum/mpegts_stream_id:id=189
packet|codec_type=data|stream_index=0|pts=577350|pts_time=6.415000|dts=577350|dts_time=6.415000|duration=N/A|duration_time=N/A|size=26|pos=1316|flags=K__|data_hash=CRC32:469f474b|side_datum/mpegts_stream_id:side_data_type=MPEGTS Stream ID|side_datum/mpegts_stream_id:id=189
stream|index=0|codec_name=timed_id3|profile=unknown|codec_type=data|codec_tag_string=ID3 |codec_tag=0x20334449|ts_id=1|ts_packetsize=188|id=0x100|r_frame_rate=0/0|avg_frame_rate=0/0|time_base=1/90000|start_pts=126000|start_time=1.400000|duration_ts=451350|duration=5.015000|bit_rate=N/A|max_bit_rate=N/A|bits_per_raw_sample=N/A|nb_frames=N/A|nb_read_frames=N/A|nb_read_packets=2|disposition:default=0|disposition:dub=0|disposition:original=0|disposition:comment=0|disposition:lyrics=0|disposition:karaoke=0|disposition:forced=0|disposition:hearing_impaired=0|disposition:visual_impaired=0|disposition:clean_effects=0|disposition:attached_pic=0|disposition:timed_thumbnails=0|disposition:non_diegetic=0|disposition:captions=0|disposition:descriptions=0|disposition:metadata=0|disposition:dependent=0|disposition:still_image=0|disposition:multilayer=0
format|filename=id3.ts|nb_streams=1|nb_programs=1|nb_stream_groups=0|format_name=mpegts|start_time=1.400000|duration=5.015000|size=1504|bit_rate=2399|probe_score=2
